<svg width="100" height="100" viewBox="0 0 100 100" fill="none" xmlns="http://www.w3.org/2000/svg">
  <path d="M100 0H0V100H100V0Z" fill="black"/>
  <path fill-rule="evenodd" clip-rule="evenodd" d="M0 1H100V0H0V1Z" fill="rgba(255, 255, 255, 0.1)"/>
  <path fill-rule="evenodd" clip-rule="evenodd" d="M0 21H100V20H0V21Z" fill="rgba(255, 255, 255, 0.1)"/>
  <path fill-rule="evenodd" clip-rule="evenodd" d="M0 41H100V40H0V41Z" fill="rgba(255, 255, 255, 0.1)"/>
  <path fill-rule="evenodd" clip-rule="evenodd" d="M0 61H100V60H0V61Z" fill="rgba(255, 255, 255, 0.1)"/>
  <path fill-rule="evenodd" clip-rule="evenodd" d="M0 81H100V80H0V81Z" fill="rgba(255, 255, 255, 0.1)"/>
  <path fill-rule="evenodd" clip-rule="evenodd" d="M1 0V100H0V0H1Z" fill="rgba(255, 255, 255, 0.1)"/>
  <path fill-rule="evenodd" clip-rule="evenodd" d="M21 0V100H20V0H21Z" fill="rgba(255, 255, 255, 0.1)"/>
  <path fill-rule="evenodd" clip-rule="evenodd" d="M41 0V100H40V0H41Z" fill="rgba(255, 255, 255, 0.1)"/>
  <path fill-rule="evenodd" clip-rule="evenodd" d="M61 0V100H60V0H61Z" fill="rgba(255, 255, 255, 0.1)"/>
  <path fill-rule="evenodd" clip-rule="evenodd" d="M81 0V100H80V0H81Z" fill="rgba(255, 255, 255, 0.1)"/>
</svg> 