<svg width="100" height="100" viewBox="0 0 100 100" xmlns="http://www.w3.org/2000/svg">
  <filter id="noise">
    <feTurbulence type="fractalNoise" baseFrequency="0.75" numOctaves="4" stitchTiles="stitch"/>
    <feColorMatrix type="matrix" values="0 0 0 0 0 0 0 0 0 0 0 0 0 0 0 0 0 0 1 0"/>
  </filter>
  
  <filter id="roughen">
    <feTurbulence type="turbulence" baseFrequency="0.15" numOctaves="2" result="turbulence" seed="3"/>
    <feDisplacementMap in="SourceGraphic" in2="turbulence" scale="10" xChannelSelector="R" yChannelSelector="G"/>
  </filter>
  
  <rect x="0" y="0" width="100" height="100" fill="#333333" filter="url(#noise)"/>
  
  <!-- Cracked stone patterns -->
  <g fill="none" stroke="#111111" stroke-width="0.5" filter="url(#roughen)">
    <path d="M10,20 L40,30 L70,25 L90,40" />
    <path d="M5,50 L25,45 L45,60 L75,55 L95,70" />
    <path d="M15,80 L35,75 L55,85 L85,80" />
    <path d="M20,5 L25,35 L30,65 L35,95" />
    <path d="M50,10 L55,30 L45,50 L60,70 L50,90" />
    <path d="M80,5 L75,25 L85,45 L70,65 L80,85" />
  </g>
</svg> 