<svg width="200" height="200" viewBox="0 0 200 200" xmlns="http://www.w3.org/2000/svg">
  <defs>
    <filter id="glitch">
      <feTurbulence type="fractalNoise" baseFrequency="0.02" numOctaves="1" seed="1" result="turbulence"/>
      <feDisplacementMap in="SourceGraphic" in2="turbulence" scale="10" xChannelSelector="R" yChannelSelector="G"/>
    </filter>
    
    <filter id="digital-noise">
      <feTurbulence type="fractalNoise" baseFrequency="0.4" numOctaves="5" stitchTiles="stitch" result="noise"/>
      <feColorMatrix in="noise" type="matrix" values="1 0 0 0 0 0 1 0 0 0 0 0 1 0 0 0 0 0 0.5 0" result="colorNoise"/>
      <feBlend in="SourceGraphic" in2="colorNoise" mode="overlay" result="blend"/>
    </filter>
  </defs>
  
  <!-- Digital backdrop -->
  <rect width="200" height="200" fill="#000" opacity="0.1"/>
  
  <!-- Neural network nodes and connections -->
  <g stroke="#0077FF" stroke-width="0.5" filter="url(#glitch)">
    <!-- Connections -->
    <line x1="20" y1="30" x2="60" y2="70" opacity="0.4"/>
    <line x1="60" y1="70" x2="100" y2="50" opacity="0.4"/>
    <line x1="100" y1="50" x2="140" y2="90" opacity="0.4"/>
    <line x1="140" y1="90" x2="180" y2="40" opacity="0.4"/>
    
    <line x1="20" y1="100" x2="60" y2="70" opacity="0.4"/>
    <line x1="60" y1="70" x2="100" y2="110" opacity="0.4"/>
    <line x1="100" y1="110" x2="140" y2="90" opacity="0.4"/>
    <line x1="140" y1="90" x2="180" y2="120" opacity="0.4"/>
    
    <line x1="20" y1="170" x2="60" y2="150" opacity="0.4"/>
    <line x1="60" y1="150" x2="100" y2="110" opacity="0.4"/>
    <line x1="100" y1="110" x2="140" y2="150" opacity="0.4"/>
    <line x1="140" y1="150" x2="180" y2="180" opacity="0.4"/>
    
    <!-- Nodes -->
    <circle cx="20" cy="30" r="4" fill="#00AAFF" opacity="0.7"/>
    <circle cx="60" cy="70" r="4" fill="#00AAFF" opacity="0.7"/>
    <circle cx="100" cy="50" r="4" fill="#00AAFF" opacity="0.7"/>
    <circle cx="140" cy="90" r="4" fill="#00AAFF" opacity="0.7"/>
    <circle cx="180" cy="40" r="4" fill="#00AAFF" opacity="0.7"/>
    
    <circle cx="20" cy="100" r="4" fill="#00AAFF" opacity="0.7"/>
    <circle cx="100" cy="110" r="4" fill="#00AAFF" opacity="0.7"/>
    <circle cx="180" cy="120" r="4" fill="#00AAFF" opacity="0.7"/>
    
    <circle cx="20" cy="170" r="4" fill="#00AAFF" opacity="0.7"/>
    <circle cx="60" cy="150" r="4" fill="#00AAFF" opacity="0.7"/>
    <circle cx="140" cy="150" r="4" fill="#00AAFF" opacity="0.7"/>
    <circle cx="180" cy="180" r="4" fill="#00AAFF" opacity="0.7"/>
  </g>
  
  <!-- Digital artifacts -->
  <g fill="#00AAFF" opacity="0.5" filter="url(#digital-noise)">
    <rect x="10" y="60" width="15" height="2"/>
    <rect x="80" y="20" width="10" height="2"/>
    <rect x="160" y="70" width="20" height="2"/>
    <rect x="30" y="140" width="12" height="2"/>
    <rect x="120" y="160" width="18" height="2"/>
    <rect x="150" y="110" width="8" height="2"/>
  </g>
  
  <!-- Binary code snippets -->
  <g fill="#00DDFF" font-family="monospace" font-size="6" opacity="0.3">
    <text x="15" y="15">10110101</text>
    <text x="130" y="25">01001</text>
    <text x="70" y="95">11001010</text>
    <text x="160" y="135">10110</text>
    <text x="40" y="175">01011101</text>
    <text x="120" y="185">110010</text>
  </g>
</svg> 