<svg width="200" height="200" viewBox="0 0 200 200" xmlns="http://www.w3.org/2000/svg">
  <defs>
    <filter id="shadow" x="-20%" y="-20%" width="140%" height="140%">
      <feGaussianBlur in="SourceAlpha" stdDeviation="3" result="blur"/>
      <feOffset in="blur" dx="1" dy="1" result="offsetBlur"/>
      <feComponentTransfer in="offsetBlur" result="darkenedBlur">
        <feFuncA type="linear" slope="0.3"/>
      </feComponentTransfer>
      <feMerge>
        <feMergeNode in="darkenedBlur"/>
        <feMergeNode in="SourceGraphic"/>
      </feMerge>
    </filter>
    
    <pattern id="smallDots" width="10" height="10" patternUnits="userSpaceOnUse">
      <circle cx="2" cy="2" r="0.5" fill="#333" opacity="0.2"/>
    </pattern>
  </defs>
  
  <!-- Subtle background -->
  <rect width="200" height="200" fill="url(#smallDots)"/>
  
  <!-- Warrior silhouettes/shadows -->
  <g fill="#222222" opacity="0.15" filter="url(#shadow)">
    <!-- Sword silhouette -->
    <path d="M40,40 L60,20 L65,25 L45,45 Z"/>
    <line x1="45" y1="45" x2="25" y2="65" stroke="#222222" stroke-width="1.5"/>
    
    <!-- Shuriken stars -->
    <path d="M130,30 L135,25 L140,30 L135,35 Z" transform="rotate(45, 135, 30)"/>
    <path d="M150,50 L155,45 L160,50 L155,55 Z" transform="rotate(15, 155, 50)"/>
    <path d="M170,40 L175,35 L180,40 L175,45 Z" transform="rotate(75, 175, 40)"/>
    
    <!-- Shadow warrior -->
    <path d="M40,120 C45,110 50,105 60,110 C70,115 65,125 60,130 C55,135 40,130 40,120 Z"/>
    
    <!-- Mountain peaks (stealth territory) -->
    <path d="M10,180 L30,150 L50,170 L70,140 L90,160 L110,130 L130,150 L150,120 L170,140 L190,110 L190,180 Z"/>
  </g>
  
  <!-- Barely visible path lines -->
  <g stroke="#333333" stroke-width="0.5" stroke-dasharray="2,3" opacity="0.15">
    <path d="M30,30 C50,20 80,50 60,70 C40,90 70,110 90,90 C110,70 130,100 150,80" fill="none"/>
    <path d="M160,110 C140,130 110,120 130,140 C150,160 120,170 100,150" fill="none"/>
  </g>
  
  <!-- Subtle symbols -->
  <g fill="#222222" opacity="0.2">
    <circle cx="50" cy="90" r="1"/>
    <circle cx="100" cy="70" r="1"/>
    <circle cx="150" cy="110" r="1"/>
    <circle cx="80" cy="140" r="1"/>
    <circle cx="120" cy="170" r="1"/>
    
    <rect x="100" y="50" width="2" height="2" transform="rotate(45, 101, 51)"/>
    <rect x="70" y="110" width="2" height="2" transform="rotate(45, 71, 111)"/>
    <rect x="130" cy="90" width="2" height="2" transform="rotate(45, 131, 91)"/>
  </g>
</svg> 